<svg id="Layer_1" data-name="Layer 1" xmlns="http://www.w3.org/2000/svg" viewBox="0 0 172.15 49">
  <defs>
    <style>
      .cls-1 {
        fill: #2e2e2e;
      }
    </style>
  </defs>
  <title>logo-freshform</title>
  <g id="Layer_2" data-name="Layer 2">
    <g id="Layer_1-2" data-name="Layer 1-2">
      <polygon class="cls-1" points="6.97 0 0 6.97 0 8.62 8.63 0 6.97 0"/>
      <polygon class="cls-1" points="0.01 0 0 0.01 0 1.66 1.67 0 0.01 0"/>
      <polygon class="cls-1" points="3.49 0 0 3.49 0 5.14 5.15 0 3.49 0"/>
      <polygon class="cls-1" points="10.45 0 0 10.45 0 12.11 12.11 0 10.45 0"/>
      <polygon class="cls-1" points="0 27.47 3.75 31.21 4.64 30.31 0 25.68 0 27.47"/>
      <polygon class="cls-1" points="0 30.95 2.01 32.95 2.9 32.05 0 29.15 0 30.95"/>
      <polygon class="cls-1" points="13.22 12.57 17.8 17.16 18.7 16.26 15.01 12.57 13.22 12.57"/>
      <path class="cls-1" d="M10,12.57,22.55,0H20.89L8.32,12.57H6.5L19.07,0H17.41L4.84,12.57H3L15.59,0H13.93L1.36,12.57H0V24l5.48,5.48.89-.9-6.2-6.2.88-.88,6.19,6.19.91-.88-6.21-6.2.83-.83L9,26l.9-.9L3.7,18.89,4.54,18l6.2,6.2.9-.89L5.44,17.1l.91-.91,6.2,6.2.9-.89-6.2-6.2.85-.86,6.21,6.21.9-.9L9,13.55l.85-.85L16,18.91,17,18l-5.44-5.44ZM3.8,13.63l-.91.91L2,13.63l.91-.91Zm-2.72.9.91.91-.87.87L.19,15.4Zm0,5.25L.2,18.87,1,18l.91.91ZM2.86,18,2,17.14l.87-.87.91.91Zm1.77-1.77-.91-.91.91-.91.91.91Zm1.81-1.81-.91-.91.85-.85.92.91Z"/>
      <polygon class="cls-1" points="16.7 12.57 19.53 15.43 20.43 14.53 18.49 12.57 16.7 12.57"/>
      <polygon class="cls-1" points="21.26 13.7 22.38 12.57 20.13 12.57 21.26 13.7"/>
      <polygon class="cls-1" points="0 34.96 1.17 33.79 1.17 33.78 0 32.61 0 34.96"/>
      <path class="cls-1" d="M32.52,12.52H47v4.12H37.65v4h8.12v4H37.65v7.6H32.52Z"/>
      <path class="cls-1" d="M46.73,17.91h4.56v2.51h0a4.33,4.33,0,0,1,4.31-2.79,5.13,5.13,0,0,1,1.1.11V22A6.81,6.81,0,0,0,55,21.75a3.3,3.3,0,0,0-3.54,3.39v7.1H46.73Z"/>
      <path class="cls-1" d="M61.42,26.22a3.06,3.06,0,0,0,2.85,3.26h.35a2.82,2.82,0,0,0,2.7-1.93h4.46c-.77,3.49-4,5.13-7.22,5.13-4.66,0-7.84-2.82-7.84-7.62a7.52,7.52,0,0,1,7.5-7.54h.23c5.14,0,7.71,3.87,7.49,8.73Zm5.82-2.62a2.89,2.89,0,0,0-2.79-2.93,3.09,3.09,0,0,0-3,2.93Z"/>
      <path class="cls-1" d="M76.74,27.52a1.93,1.93,0,0,0,.77,1.6,3,3,0,0,0,1.74.49c.91,0,2.21-.38,2.21-1.52S80,26.77,79.17,26.58c-3-.75-6.66-.83-6.66-4.7,0-3.45,3.73-4.39,6.55-4.39,3.14,0,6.43.91,6.59,4.64H81.32a1.34,1.34,0,0,0-.61-1.24,2.74,2.74,0,0,0-1.49-.36c-.77,0-2,.08-2,1.08,0,1.35,3.14,1.6,5.3,2.07,2.9.58,3.64,2.68,3.64,3.86,0,3.84-3.64,5.11-6.87,5.11-3.4,0-6.88-1.13-7-5.13Z"/>
      <path class="cls-1" d="M87,12.52h4.7v7.35h0a5,5,0,0,1,4.36-2.38c4.78,0,5.16,3.48,5.16,5.55v9.2H96.61V25.31c0-2,.22-4-2.34-4-1.77,0-2.54,1.49-2.54,3.06v7.82H87Z"/>
      <path class="cls-1" d="M102.54,12.52h14.53v4.12h-9.39v4h8.12v4h-8.12v7.6h-5.14Z"/>
      <path class="cls-1" d="M123.91,17.49a7.35,7.35,0,0,1,7.57,7.12q0,.24,0,.48a7.56,7.56,0,0,1-15.11.55q0-.27,0-.55a7.33,7.33,0,0,1,7.05-7.6Zm0,11.57c2.18,0,2.87-2.15,2.87-4s-.69-4-2.87-4-2.84,2.18-2.84,4S121.73,29.06,123.91,29.06Z"/>
      <path class="cls-1" d="M132.47,17.91H137v2.51h.06a4.32,4.32,0,0,1,4.3-2.79,5.22,5.22,0,0,1,1.11.11V22a6.82,6.82,0,0,0-1.8-.27,3.3,3.3,0,0,0-3.52,3.06q0,.16,0,.33v7.1h-4.69Z"/>
      <path class="cls-1" d="M143.59,17.91h4.56v2h0a4.79,4.79,0,0,1,4.12-2.38c1.79,0,3.39.58,4.16,2.32A5.26,5.26,0,0,1,161,17.49c4.55,0,5,3.45,5,6.19v8.56h-4.69V23.82c0-1.55-.75-2.46-2-2.46-2,0-2.21,1.54-2.21,3.86v7h-4.7V24.09c0-1.68-.49-2.73-1.76-2.73-1.69,0-2.41,1-2.41,3.89v7h-4.69Z"/>
      <path class="cls-1" d="M167,27.1h5.13v5.14H167Z"/>
      <path class="cls-1" d="M32.52,40.12h4.75v.56h-4.1v2.49H37v.56H33.17v2.72h4.15V47h-4.8Z"/>
      <path class="cls-1" d="M39.49,44.43,37.7,42h.77l1.41,1.89L41.27,42H42l-1.79,2.39,2,2.61h-.77l-1.57-2.09L38.31,47h-.75Z"/>
      <path class="cls-1" d="M42.77,42h.56v1h0a1.85,1.85,0,0,1,1.77-1.09c1.52,0,2.24,1.22,2.24,2.63s-.72,2.64-2.24,2.64a1.77,1.77,0,0,1-1.72-1.09h0v2.79h-.61Zm2.35.37c-1.34,0-1.74,1-1.74,2.12s.45,2.13,1.74,2.13,1.64-1.09,1.64-2.13-.48-2.09-1.64-2.09Z"/>
      <path class="cls-1" d="M48.67,44.69a1.77,1.77,0,0,0,1.52,2h.12a1.52,1.52,0,0,0,1.56-1.28h.61a2,2,0,0,1-2.17,1.79c-1.58,0-2.25-1.22-2.25-2.64s.67-2.63,2.25-2.63,2.24,1.4,2.19,2.8Zm3.22-.51a1.68,1.68,0,0,0-1.57-1.78h0a1.77,1.77,0,0,0-1.64,1.78Z"/>
      <path class="cls-1" d="M53.32,42h.56v1.2h0a1.84,1.84,0,0,1,1.9-1.2v.6a1.72,1.72,0,0,0-1.85,1.79V47h-.61Z"/>
      <path class="cls-1" d="M56.37,40.12H57v1h-.61Zm0,1.91H57v5h-.61Z"/>
      <path class="cls-1" d="M58.51,44.69a1.77,1.77,0,0,0,1.52,2h.12a1.52,1.52,0,0,0,1.56-1.28h.61a2,2,0,0,1-2.17,1.79c-1.59,0-2.25-1.22-2.25-2.64s.66-2.63,2.25-2.63,2.24,1.4,2.19,2.8Zm3.22-.51a1.68,1.68,0,0,0-1.57-1.78h0a1.76,1.76,0,0,0-1.64,1.78Z"/>
      <path class="cls-1" d="M63.15,42h.61v.86h0a1.67,1.67,0,0,1,1.59-1c1.4,0,1.82.73,1.82,1.92V47h-.6V43.9c0-.86-.28-1.51-1.27-1.51A1.57,1.57,0,0,0,63.73,44s0,.09,0,.14V47h-.61Z"/>
      <path class="cls-1" d="M71.86,43.6a1.36,1.36,0,0,0-1.41-1.2,1.89,1.89,0,0,0-1.76,2s0,.07,0,.11a1.9,1.9,0,0,0,1.65,2.12h.1a1.48,1.48,0,0,0,1.44-1.42h.61a2,2,0,0,1-2,1.93,2.39,2.39,0,0,1-2.37-2.41q0-.12,0-.23a2.39,2.39,0,0,1,2.14-2.62h.22a1.85,1.85,0,0,1,2,1.69v0Z"/>
      <path class="cls-1" d="M73.71,44.69a1.77,1.77,0,0,0,1.52,2h.12a1.52,1.52,0,0,0,1.56-1.28h.61a2,2,0,0,1-2.17,1.79c-1.58,0-2.25-1.22-2.25-2.64s.67-2.63,2.25-2.63,2.24,1.4,2.19,2.8Zm3.22-.51a1.67,1.67,0,0,0-1.55-1.78h0a1.77,1.77,0,0,0-1.64,1.78Z"/>
      <path class="cls-1" d="M81.16,40.12h2.39c2.07,0,3.16,1.19,3.16,3.45S85.62,47,83.55,47H81.16Zm.66,6.33h1.4c2,0,2.84-.83,2.84-2.88s-.86-2.9-2.84-2.89h-1.4Z"/>
      <path class="cls-1" d="M88,44.69a1.77,1.77,0,0,0,1.52,2h.12a1.52,1.52,0,0,0,1.56-1.28h.61a2,2,0,0,1-2.17,1.79c-1.58,0-2.25-1.22-2.25-2.64s.67-2.63,2.25-2.63,2.24,1.4,2.19,2.8Zm3.22-.51a1.68,1.68,0,0,0-1.57-1.78h0A1.77,1.77,0,0,0,88,44.18Z"/>
      <path class="cls-1" d="M95.65,43.49a1.14,1.14,0,0,0-1.18-1.1h-.12c-.54,0-1.18.21-1.18.86s.62.73,1,.84l.81.18a1.46,1.46,0,0,1,1.41,1.38c0,1.08-1.07,1.5-2,1.5a1.81,1.81,0,0,1-2-1.61q0-.08,0-.15H93a1.32,1.32,0,0,0,1.38,1.26h.09c.57,0,1.36-.26,1.36-1s-.54-.77-1.09-.91L94,44.62c-.8-.21-1.39-.48-1.39-1.33s1-1.4,1.87-1.4a1.63,1.63,0,0,1,1.82,1.6Z"/>
      <path class="cls-1" d="M97.33,40.12h.6v1h-.6Zm0,1.91h.6v5h-.6Z"/>
      <path class="cls-1" d="M103.31,46.61c0,1.48-.58,2.39-2.21,2.39-1,0-2-.44-2.07-1.51h.61a1.31,1.31,0,0,0,1.46,1c1.12,0,1.6-.67,1.6-1.88v-.68h0a1.72,1.72,0,0,1-1.58,1c-1.59,0-2.25-1.13-2.25-2.55a2.28,2.28,0,0,1,2-2.5h.21a1.75,1.75,0,0,1,1.58,1h0V42h.61Zm-.61-2.14c0-1-.45-2.07-1.6-2.07s-1.64,1-1.64,2.07.52,2,1.64,2S102.7,45.48,102.7,44.47Z"/>
      <path class="cls-1" d="M104.46,42h.61v.86h0a1.67,1.67,0,0,1,1.59-1c1.4,0,1.82.73,1.82,1.92V47h-.61V43.9c0-.86-.28-1.51-1.26-1.51A1.57,1.57,0,0,0,105,44s0,.09,0,.14V47h-.61Z"/>
      <path class="cls-1" d="M112.28,43.56c.06-1.17.88-1.67,2-1.67.87,0,1.83.27,1.83,1.6v2.64c0,.24.11.37.36.37a.58.58,0,0,0,.19,0V47a1.64,1.64,0,0,1-.4,0c-.61,0-.71-.35-.71-.87h0a1.89,1.89,0,0,1-1.81,1c-.92,0-1.67-.46-1.67-1.46,0-1.4,1.36-1.45,2.67-1.6.5-.06.78-.13.78-.68,0-.82-.59-1-1.3-1a1.18,1.18,0,0,0-1.33,1.16Zm3.24.73h0c-.08.15-.35.19-.51.22-1,.19-2.31.18-2.31,1.15a1,1,0,0,0,1,1h.11a1.6,1.6,0,0,0,1.73-1.45s0-.08,0-.12Z"/>
      <path class="cls-1" d="M117.34,42H118v.86h0a1.67,1.67,0,0,1,1.59-1c1.4,0,1.82.73,1.82,1.92V47h-.61V43.9c0-.86-.28-1.51-1.26-1.51A1.57,1.57,0,0,0,118,44s0,.09,0,.13V47h-.61Z"/>
      <path class="cls-1" d="M126.91,47h-.56v-.94h0a2,2,0,0,1-1.77,1.09c-1.52,0-2.24-1.23-2.24-2.64s.72-2.63,2.24-2.63a1.77,1.77,0,0,1,1.7,1.12h0V40.12h.61Zm-2.35-.36c1.29,0,1.74-1.09,1.74-2.13s-.45-2.12-1.74-2.12-1.63,1.09-1.63,2.12.47,2.14,1.63,2.14Z"/>
      <path class="cls-1" d="M130.92,40.12h.66V47h-.66Z"/>
      <path class="cls-1" d="M132.89,42h.61v.86h0a1.67,1.67,0,0,1,1.59-1c1.4,0,1.82.73,1.82,1.92V47h-.6V43.9c0-.86-.28-1.51-1.27-1.51A1.57,1.57,0,0,0,133.47,44s0,.09,0,.14V47h-.61Z"/>
      <path class="cls-1" d="M138.07,42h.61v.86h0a1.68,1.68,0,0,1,1.59-1c1.4,0,1.83.73,1.83,1.92V47h-.61V43.9c0-.86-.28-1.51-1.27-1.51A1.57,1.57,0,0,0,138.65,44s0,.09,0,.14V47h-.61Z"/>
      <path class="cls-1" d="M147.73,44.52a2.37,2.37,0,1,1-4.71,0,2.37,2.37,0,1,1,4.71,0Zm-4.11,0a1.78,1.78,0,1,0,3.5,0,1.78,1.78,0,1,0-3.5,0Z"/>
      <path class="cls-1" d="M148.08,42h.67l1.56,4.37h0L151.88,42h.62l-1.86,5H150Z"/>
      <path class="cls-1" d="M153.05,43.56c.06-1.17.88-1.67,2-1.67.88,0,1.84.27,1.84,1.6v2.64c0,.24.11.37.35.37a.59.59,0,0,0,.2,0V47a1.64,1.64,0,0,1-.4,0c-.62,0-.71-.35-.71-.87h0a1.91,1.91,0,0,1-1.82,1c-.91,0-1.66-.46-1.66-1.46,0-1.4,1.36-1.45,2.67-1.6.5-.06.78-.13.78-.68,0-.82-.59-1-1.3-1a1.17,1.17,0,0,0-1.33,1.16Zm3.24.73h0c-.08.15-.35.19-.51.22-1,.19-2.32.18-2.32,1.15a1,1,0,0,0,1,1h.12a1.6,1.6,0,0,0,1.73-1.45s0-.08,0-.12Z"/>
      <path class="cls-1" d="M159.08,42h1v.52h-1V45.9c0,.4.06.63.49.66a4.41,4.41,0,0,0,.52,0v.52h-.54c-.81,0-1.09-.27-1.08-1.12v-3.4h-.87V42h.87V40.54h.61Z"/>
      <path class="cls-1" d="M161,40.12h.61v1H161ZM161,42h.61v5H161Z"/>
      <path class="cls-1" d="M167.22,44.52a2.37,2.37,0,1,1-4.71,0,2.37,2.37,0,1,1,4.71,0Zm-4.1,0a1.78,1.78,0,1,0,3.49,0,1.78,1.78,0,1,0-3.49,0Z"/>
      <path class="cls-1" d="M168.12,42h.61v.86h0a1.7,1.7,0,0,1,1.6-1c1.4,0,1.82.73,1.82,1.92V47h-.61V43.9c0-.86-.28-1.51-1.26-1.51a1.56,1.56,0,0,0-1.56,1.71V47h-.61Z"/>
    </g>
  </g>
</svg>
