<svg id="Layer_1" data-name="Layer 1" xmlns="http://www.w3.org/2000/svg" viewBox="0 0 118.77 40">
  <defs>
    <style>
      .cls-1 {
        fill: #595959;
      }
    </style>
  </defs>
  <title>logo-oomph</title>
  <path class="cls-1" d="M12.68,8.56a11.17,11.17,0,0,0-7,2.08,11.63,11.63,0,0,0-3.89,5.24,18.4,18.4,0,0,0-1.18,6.5A9.28,9.28,0,0,0,3,29.15,8.87,8.87,0,0,0,9.66,31.6a11,11,0,0,0,7-2.12,11.88,11.88,0,0,0,3.9-5.3,18.5,18.5,0,0,0,1.18-6.48A9.23,9.23,0,0,0,19.35,11a8.72,8.72,0,0,0-6.67-2.43m1.43,15.21q-1.14,3.06-4,3.1a2.68,2.68,0,0,1-2.26-1,5.09,5.09,0,0,1-.76-3.1,17.87,17.87,0,0,1,1.16-6.48q1.16-3,4-3a2.71,2.71,0,0,1,2.26,1,4.85,4.85,0,0,1,.75,3,18.48,18.48,0,0,1-1.14,6.52M91.58,8.56a8.63,8.63,0,0,0-6.4,3.1V9.26H79.6L75.31,40l6.4-.69L82.82,31a13,13,0,0,0,4,.57,9.73,9.73,0,0,0,6.6-2.22,12.6,12.6,0,0,0,3.71-5.57A21,21,0,0,0,98.23,17a10,10,0,0,0-1.69-6.26,5.89,5.89,0,0,0-5-2.18m-.41,13.07a9.68,9.68,0,0,1-1.79,3.77,3.83,3.83,0,0,1-3.1,1.51,7.37,7.37,0,0,1-2.73-.53L85,15.78q2-2.49,4.12-2.49a2.33,2.33,0,0,1,1.92.86,4.84,4.84,0,0,1,.69,3,18.42,18.42,0,0,1-.57,4.5M35.3,8.56a11.16,11.16,0,0,0-7,2.08,11.62,11.62,0,0,0-3.89,5.24,18.43,18.43,0,0,0-1.18,6.5,9.29,9.29,0,0,0,2.38,6.77,8.87,8.87,0,0,0,6.67,2.45,11,11,0,0,0,7-2.12,11.87,11.87,0,0,0,3.9-5.3,18.47,18.47,0,0,0,1.18-6.48A9.23,9.23,0,0,0,42,11,8.72,8.72,0,0,0,35.3,8.56m1.43,15.21q-1.14,3.06-4,3.1a2.68,2.68,0,0,1-2.26-1,5.09,5.09,0,0,1-.75-3.1,17.87,17.87,0,0,1,1.16-6.48q1.16-3,4-3a2.71,2.71,0,0,1,2.26,1,4.84,4.84,0,0,1,.75,3,18.5,18.5,0,0,1-1.14,6.52M118.06,9.91a4.74,4.74,0,0,0-3.69-1.34,7.07,7.07,0,0,0-3.81,1.2,9.43,9.43,0,0,0-3.08,3.2l1.87-13L103,.65,98.71,30.91H105l1.85-13.21c.82-1.6,2.86-3.87,4.55-3.87a1.65,1.65,0,0,1,1.14.37,1.77,1.77,0,0,1,.41,1.34,5.82,5.82,0,0,1-.12,1.06l-2.12,14.31h6.36l2.2-15.74a9.17,9.17,0,0,0,.08-1.39,5.38,5.38,0,0,0-1.32-3.87m-42,3.88a5.44,5.44,0,0,0-1.3-3.88,4.58,4.58,0,0,0-3.59-1.34,6.8,6.8,0,0,0-3.57,1.08,9.84,9.84,0,0,0-3,3A4.71,4.71,0,0,0,63,9.6a4.9,4.9,0,0,0-3.22-1,6.7,6.7,0,0,0-3.65,1.1A10.63,10.63,0,0,0,53,12.76V9.25H47.65l-3,21.65H51L52.79,17.7c.63-1.55,2.36-3.87,4.07-3.87a1.37,1.37,0,0,1,1,.37,1.89,1.89,0,0,1,.37,1.34,5.41,5.41,0,0,1-.12,1.06L56,30.91h6.32L64.17,17.7c.68-1.5,2.3-3.87,4.12-3.87a1.39,1.39,0,0,1,1,.37,1.91,1.91,0,0,1,.36,1.34,5.66,5.66,0,0,1-.12,1.06L67.43,30.91h6.32l2.2-15.74a8.43,8.43,0,0,0,.12-1.39" transform="translate(-0.61)"/>
</svg>
