<svg id="Layer_1" data-name="Layer 1" xmlns="http://www.w3.org/2000/svg" viewBox="0 0 185.98 25.88"><defs><style>.cls-1{fill:#231f20;}</style></defs><title>esteemed-logo-bw-final</title><path class="cls-1" d="M44.76,24.37c-4.92,0-8.46-3.3-8.46-8.61s3.48-8.61,8.46-8.61,8.34,3.24,8.34,8.34A13,13,0,0,1,53,17H41.4c.18,2.19,1.53,3.21,3.18,3.21a2.73,2.73,0,0,0,2.67-1.62h5.46A7.82,7.82,0,0,1,44.76,24.37ZM41.43,14.14h6.42a2.89,2.89,0,0,0-3.15-2.88A3.17,3.17,0,0,0,41.43,14.14Z" transform="translate(-1.34 -0.01)"/><path class="cls-1" d="M62.43,24.37c-4.47,0-7.47-2.49-7.71-5.73h5.07a2.35,2.35,0,0,0,2.58,1.95c1.32,0,2-.6,2-1.35,0-2.7-9.12-.75-9.12-6.9,0-2.85,2.43-5.19,6.81-5.19s6.72,2.4,7.05,5.7H64.38A2.21,2.21,0,0,0,61.92,11c-1.2,0-1.86.48-1.86,1.29,0,2.67,9.06.78,9.15,7C69.21,22.18,66.63,24.37,62.43,24.37Z" transform="translate(-1.34 -0.01)"/><path class="cls-1" d="M73,11.65H71V7.39h2V3.31h5.13V7.39h3.36v4.26H78.12v6.72c0,1,.42,1.41,1.56,1.41h1.83v4.35H78.9c-3.48,0-5.91-1.47-5.91-5.82Z" transform="translate(-1.34 -0.01)"/><path class="cls-1" d="M91.62,24.37c-4.92,0-8.46-3.3-8.46-8.61s3.48-8.61,8.46-8.61S100,10.39,100,15.49a13,13,0,0,1-.09,1.5H88.26c.18,2.19,1.53,3.21,3.18,3.21a2.73,2.73,0,0,0,2.67-1.62h5.46A7.82,7.82,0,0,1,91.62,24.37ZM88.29,14.14h6.42a2.89,2.89,0,0,0-3.15-2.88A3.17,3.17,0,0,0,88.29,14.14Z" transform="translate(-1.34 -0.01)"/><path class="cls-1" d="M109.92,24.37c-4.92,0-8.46-3.3-8.46-8.61s3.48-8.61,8.46-8.61,8.34,3.24,8.34,8.34a13,13,0,0,1-.09,1.5H106.56c.18,2.19,1.53,3.21,3.18,3.21a2.73,2.73,0,0,0,2.67-1.62h5.46A7.82,7.82,0,0,1,109.92,24.37Zm-3.33-10.23H113a2.89,2.89,0,0,0-3.15-2.88A3.17,3.17,0,0,0,106.59,14.14Z" transform="translate(-1.34 -0.01)"/><path class="cls-1" d="M143.85,15c0-2.19-1.26-3.39-3.21-3.39s-3.21,1.2-3.21,3.39v9.09h-5.1V15c0-2.19-1.26-3.39-3.21-3.39s-3.21,1.2-3.21,3.39v9.09h-5.13V7.39h5.13v2.1a5.91,5.91,0,0,1,4.89-2.28,6.25,6.25,0,0,1,5.7,3.12,6.73,6.73,0,0,1,5.64-3.12c4.14,0,6.81,2.64,6.81,7.14v9.78h-5.1Z" transform="translate(-1.34 -0.01)"/><path class="cls-1" d="M159.81,24.37c-4.92,0-8.46-3.3-8.46-8.61s3.48-8.61,8.46-8.61,8.34,3.24,8.34,8.34a13,13,0,0,1-.09,1.5H156.45c.18,2.19,1.53,3.21,3.18,3.21a2.73,2.73,0,0,0,2.67-1.62h5.46A7.82,7.82,0,0,1,159.81,24.37Zm-3.33-10.23h6.42a2.89,2.89,0,0,0-3.15-2.88A3.17,3.17,0,0,0,156.48,14.14Z" transform="translate(-1.34 -0.01)"/><path class="cls-1" d="M177,7.15a6.14,6.14,0,0,1,5.16,2.55V1.93h5.13v22.2h-5.13v-2.4A5.79,5.79,0,0,1,177,24.37c-4.11,0-7.38-3.36-7.38-8.64S172.92,7.15,177,7.15Zm1.5,4.47c-1.92,0-3.66,1.44-3.66,4.11s1.74,4.17,3.66,4.17,3.66-1.47,3.66-4.14S180.48,11.62,178.53,11.62Z" transform="translate(-1.34 -0.01)"/><polygon class="cls-1" points="13.6 0 17.81 8.52 27.21 9.88 20.41 16.51 22.01 25.88 13.6 21.46 5.2 25.88 6.8 16.51 0 9.88 9.4 8.52 13.6 0"/></svg>